<svg xmlns="http://www.w3.org/2000/svg" version="1.1" xmlns:xlink="http://www.w3.org/1999/xlink" xmlns:svgjs="http://svgjs.dev/svgjs" width="128" height="128" viewBox="0 0 128 128"><g transform="matrix(0.8046875,0,0,0.8046875,12.760752631578946,32.820030233560765)"><svg viewBox="0 0 95 58" data-background-color="#161618" preserveAspectRatio="xMidYMid meet" height="78" width="128" xmlns="http://www.w3.org/2000/svg" xmlns:xlink="http://www.w3.org/1999/xlink"><g id="tight-bounds" transform="matrix(1,0,0,1,-0.24049999999999727,-0.18744143066406593)"><svg viewBox="0 0 95.481 58.37488286132813" height="58.37488286132813" width="95.481"><g><svg viewBox="0 0 95.481 58.37488286132813" height="58.37488286132813" width="95.481"><g><svg viewBox="0 0 95.481 58.37488286132813" height="58.37488286132813" width="95.481"><g id="textblocktransform"><svg viewBox="0 0 95.481 58.37488286132813" height="58.37488286132813" width="95.481" id="textblock"><g><svg viewBox="0 0 95.481 58.37488286132813" height="58.37488286132813" width="95.481"><g><svg viewBox="0 0 95.481 58.37488286132813" height="58.37488286132813" width="95.481"><g><svg xmlns="http://www.w3.org/2000/svg" xmlns:xlink="http://www.w3.org/1999/xlink" version="1.1" x="0" y="0" viewBox="9.040000000000001 25.458 81.91999999999999 50.084" enable-background="new 0 0 100 100" xml:space="preserve" height="58.37488286132813" width="95.481" class="icon-icon-0" data-fill-palette-color="accent" id="icon-0"><path d="M81.268 25.458H18.562c-1.573 0-2.853 1.272-2.853 2.846v37.172c0 1.571 1.279 2.847 2.853 2.847h62.704c1.573 0 2.854-1.272 2.854-2.847V28.305C84.119 26.731 82.84 25.458 81.268 25.458zM50.031 26.252c0.882 0 1.594 0.718 1.594 1.601 0 0.882-0.712 1.594-1.594 1.594-0.882 0-1.601-0.711-1.601-1.594C48.43 26.97 49.148 26.252 50.031 26.252zM80.016 60.859c0 1.574-1.279 2.847-2.854 2.847H22.667c-1.573 0-2.853-1.272-2.853-2.847V33.264c0-1.574 1.279-2.846 2.853-2.846h54.495c1.572 0 2.854 1.272 2.854 2.846V60.859z" fill="#fce071" data-fill-palette-color="accent"></path><path d="M90.96 70.639c0 3.264-2.642 4.903-5.897 4.903H14.944c-3.263 0-5.904-1.642-5.904-4.903h28.924c0.691 0.719 1.663 1.17 2.744 1.17h18.36c1.08 0 2.053-0.451 2.744-1.17H90.96z" fill="#fce071" data-fill-palette-color="accent"></path><rect x="38.75" y="35.75" width="22.375" height="22.375" fill="#fce071" data-fill-palette-color="accent"></rect><polygon points="68.741,56.078 62.312,53.328 62.312,40.5 68.741,37.75 " fill="#fce071" data-fill-palette-color="accent"></polygon><polygon points="73.781,54.078 69.719,52.041 69.719,42.538 73.781,40.5 " fill="#fce071" data-fill-palette-color="accent"></polygon><polygon points="31.353,56.078 37.781,53.328 37.781,40.5 31.353,37.75 " fill="#fce071" data-fill-palette-color="accent"></polygon><polygon points="26.312,54.078 30.375,52.041 30.375,42.538 26.312,40.5 " fill="#fce071" data-fill-palette-color="accent"></polygon></svg></g></svg></g></svg></g></svg></g></svg></g></svg></g><defs></defs></svg><rect width="95.481" height="58.37488286132813" fill="none" stroke="none" visibility="hidden"></rect></g></svg></g></svg>