<svg xmlns="http://www.w3.org/2000/svg" version="1.1" xmlns:xlink="http://www.w3.org/1999/xlink" xmlns:svgjs="http://svgjs.dev/svgjs" width="2000" height="444" viewBox="0 0 2000 444"><g transform="matrix(1,0,0,1,-1.212110477793658,1.0147778203725863)"><svg viewBox="0 0 396 88" data-background-color="#161618" preserveAspectRatio="xMidYMid meet" height="444" width="2000" xmlns="http://www.w3.org/2000/svg" xmlns:xlink="http://www.w3.org/1999/xlink"><g id="tight-bounds" transform="matrix(1,0,0,1,0.23999787460314792,-0.20112681237358743)"><svg viewBox="0 0 395.52 88.40225362474716" height="88.40225362474716" width="395.52"><g><svg viewBox="0 0 648.8642325270802 145.0269530033522" height="88.40225362474716" width="395.52"><g transform="matrix(1,0,0,1,253.34423252708015,20.043522448364882)"><svg viewBox="0 0 395.52 104.93990810662243" height="104.93990810662243" width="395.52"><g id="textblocktransform"><svg viewBox="0 0 395.52 104.93990810662243" height="104.93990810662243" width="395.52" id="textblock"><g><svg viewBox="0 0 395.52 68.32797578203834" height="68.32797578203834" width="395.52"><g transform="matrix(1,0,0,1,0,0)"><svg width="395.52" viewBox="2.0999999046325684 -34 247.72999572753906 42.79999923706055" height="68.32797578203834" data-palette-color="#ffffff"><g class="undefined-text-0" data-fill-palette-color="primary" id="text-0"><path d="M21.95 0.15L21.95 0.15Q21.95-0.65 22.05-1.5 22.15-2.35 22.3-2.9L22.3-2.9Q23.65-3 24.38-3.4 25.1-3.8 25.38-4.88 25.65-5.95 25.65-7.9L25.65-7.9 25.65-25.95Q25.65-27.9 25.38-28.93 25.1-29.95 24.38-30.35 23.65-30.75 22.3-30.9L22.3-30.9Q22.1-31.45 22.03-32.3 21.95-33.15 21.95-33.95L21.95-33.95Q22.85-33.9 24.18-33.88 25.5-33.85 26.95-33.83 28.4-33.8 29.5-33.8L29.5-33.8Q30.65-33.8 31.98-33.83 33.3-33.85 34.55-33.88 35.8-33.9 36.8-33.95L36.8-33.95Q36.8-33.1 36.75-32.35 36.7-31.6 36.45-30.9L36.45-30.9Q35.15-30.8 34.4-30.38 33.65-29.95 33.38-28.93 33.1-27.9 33.1-25.95L33.1-25.95 33.1-7.9Q33.1-5.95 33.4-4.88 33.7-3.8 34.43-3.4 35.15-3 36.5-2.9L36.5-2.9Q36.65-2.4 36.73-1.55 36.8-0.7 36.8 0.15L36.8 0.15Q35.5 0.05 33.65 0.03 31.8 0 29.75 0L29.75 0Q27.7 0 25.6 0.03 23.5 0.05 21.95 0.15ZM2.1 0.15L2.1 0.15Q2.1-0.65 2.23-1.5 2.35-2.35 2.5-2.9L2.5-2.9Q3.85-3 4.58-3.4 5.3-3.8 5.55-4.88 5.8-5.95 5.8-7.9L5.8-7.9 5.8-25.95Q5.8-27.9 5.55-28.93 5.3-29.95 4.58-30.35 3.85-30.75 2.5-30.9L2.5-30.9Q2.3-31.45 2.2-32.3 2.1-33.15 2.1-33.95L2.1-33.95Q3-33.9 4.33-33.88 5.65-33.85 7.1-33.83 8.55-33.8 9.7-33.8L9.7-33.8Q10.85-33.8 12.15-33.83 13.45-33.85 14.73-33.88 16-33.9 17-33.95L17-33.95Q17-33.1 16.95-32.35 16.9-31.6 16.65-30.9L16.65-30.9Q15.3-30.8 14.58-30.38 13.85-29.95 13.58-28.93 13.3-27.9 13.3-25.95L13.3-25.95 13.3-7.9Q13.3-5.95 13.58-4.88 13.85-3.8 14.6-3.4 15.35-3 16.65-2.9L16.65-2.9Q16.85-2.4 16.93-1.55 17-0.7 17 0.15L17 0.15Q15.7 0.05 13.85 0.03 12 0 9.95 0L9.95 0Q7.9 0 5.78 0.03 3.65 0.05 2.1 0.15ZM13.05-15.45L13.05-15.45 13.05-18.95 25.9-18.95 25.9-15.85Q24.6-15.85 22.9-15.85 21.2-15.85 19.4-15.8 17.6-15.75 15.95-15.68 14.3-15.6 13.05-15.45ZM68.15-24.6L68.15-13.65Q68.15-9.35 67.55-6.7 66.95-4.05 65.2-2.3L65.2-2.3Q63.7-0.9 61.57-0.23 59.45 0.45 56.7 0.45L56.7 0.45Q51.9 0.45 49.1-0.88 46.3-2.2 45.12-4.93 43.95-7.65 43.95-11.75L43.95-11.75 43.95-25.8Q43.95-27.9 43.7-28.93 43.45-29.95 42.77-30.33 42.1-30.7 40.8-30.9L40.8-30.9Q40.65-31.55 40.57-32.35 40.5-33.15 40.5-33.95L40.5-33.95Q41.5-33.9 43.25-33.85 45-33.8 46.8-33.8L46.8-33.8Q47.7-33.8 48.85-33.8 50-33.8 51.2-33.83 52.4-33.85 53.4-33.88 54.4-33.9 55-33.95L55-33.95Q55-33.1 54.95-32.35 54.9-31.6 54.7-30.9L54.7-30.9Q53.35-30.75 52.62-30.35 51.9-29.95 51.65-28.93 51.4-27.9 51.4-25.8L51.4-25.8 51.4-12.55Q51.4-9.6 52.07-7.43 52.75-5.25 54.3-4.1 55.85-2.95 58.4-2.95L58.4-2.95Q59.6-2.95 60.92-3.4 62.25-3.85 63.15-4.95L63.15-4.95Q63.8-5.7 64.17-6.73 64.55-7.75 64.75-9.45 64.95-11.15 64.95-13.75L64.95-13.75 64.95-24.35Q64.95-26.8 64.65-28.15 64.35-29.5 63.62-30.1 62.9-30.7 61.55-30.9L61.55-30.9Q61.4-31.75 61.35-32.5 61.3-33.25 61.3-33.95L61.3-33.95Q61.95-33.9 62.85-33.88 63.75-33.85 64.72-33.83 65.7-33.8 66.45-33.8L66.45-33.8Q67.75-33.8 69.15-33.85 70.55-33.9 71.5-33.95L71.5-33.95Q71.5-33.2 71.45-32.48 71.4-31.75 71.2-30.9L71.2-30.9Q69.95-30.75 69.3-30.18 68.65-29.6 68.4-28.28 68.15-26.95 68.15-24.6L68.15-24.6ZM101.95-10.8L101 0.4 78.59-29.4Q78.05-30.2 77.4-30.48 76.75-30.75 75.3-30.9L75.3-30.9Q75.15-31.6 75.07-32.4 75-33.2 75-33.95L75-33.95Q75.55-33.9 76.52-33.88 77.5-33.85 78.5-33.83 79.5-33.8 80.2-33.8L80.2-33.8Q81.34-33.8 82.65-33.83 83.95-33.85 84.75-33.95L84.75-33.95 101.95-10.8ZM75 0.15L75 0.15Q75-0.8 75.05-1.55 75.09-2.3 75.3-2.9L75.3-2.9Q76.75-3 77.57-3.63 78.4-4.25 78.72-5.8 79.05-7.35 79.05-10.15L79.05-10.15 79.05-30.65 82.25-30.4 82.25-10.15Q82.25-7.35 82.55-5.8 82.84-4.25 83.67-3.63 84.5-3 85.95-2.9L85.95-2.9Q86.15-2.3 86.2-1.5 86.25-0.7 86.25 0.15L86.25 0.15Q85.55 0.1 84.55 0.08 83.55 0.05 82.55 0.03 81.55 0 80.75 0L80.75 0Q79.95 0 78.82 0.03 77.7 0.05 76.65 0.08 75.59 0.1 75 0.15ZM101 0.4L101 0.4 101.25-6.95 101.25-23.75Q101.25-26.55 100.95-28.05 100.65-29.55 99.8-30.18 98.95-30.8 97.4-30.9L97.4-30.9Q97.2-31.75 97.12-32.52 97.05-33.3 97.05-33.95L97.05-33.95Q97.8-33.9 98.82-33.88 99.84-33.85 100.9-33.83 101.95-33.8 102.75-33.8L102.75-33.8Q103.9-33.8 105.37-33.85 106.84-33.9 107.8-33.95L107.8-33.95Q107.8-33.2 107.75-32.43 107.7-31.65 107.5-30.9L107.5-30.9Q106.25-30.8 105.59-30.2 104.95-29.6 104.67-28.1 104.4-26.6 104.4-23.75L104.4-23.75 104.4 0Q103.7 0.25 102.84 0.33 102 0.4 101 0.4ZM131.44-30.8L120.94-30.8Q118.84-30.8 117.62-30.05 116.39-29.3 115.74-27.93 115.09-26.55 114.64-24.55L114.64-24.55Q113.64-24.55 112.59-24.65 111.54-24.75 110.79-25.15L110.79-25.15Q111.29-27.2 111.57-29.63 111.84-32.05 111.84-33.95L111.84-33.95Q113.59-33.9 115.64-33.85 117.69-33.8 120.22-33.8 122.74-33.8 126.09-33.8L126.09-33.8Q129.19-33.8 131.74-33.83 134.29-33.85 136.42-33.88 138.54-33.9 140.24-33.95L140.24-33.95Q140.24-32 140.44-29.75 140.64-27.5 140.99-25.15L140.99-25.15Q140.24-24.85 139.27-24.68 138.29-24.5 137.09-24.55L137.09-24.55Q136.74-27.7 135.47-29.25 134.19-30.8 131.44-30.8L131.44-30.8ZM122.19-7.9L122.19-32.25 129.69-32.25 129.69-7.9Q129.69-5.95 130.02-4.88 130.34-3.8 131.29-3.4 132.24-3 134.09-2.9L134.09-2.9Q134.29-2.4 134.39-1.55 134.49-0.7 134.49 0.15L134.49 0.15Q132.99 0.05 130.84 0.03 128.69 0 126.24 0L126.24 0Q124.64 0 122.89 0.03 121.14 0.05 119.64 0.08 118.14 0.1 117.09 0.15L117.09 0.15Q117.09-0.65 117.22-1.5 117.34-2.35 117.54-2.9L117.54-2.9Q119.39-3 120.42-3.4 121.44-3.8 121.82-4.88 122.19-5.95 122.19-7.9L122.19-7.9ZM144.39-33.95L144.39-33.95Q145.39-33.9 146.84-33.88 148.29-33.85 149.92-33.83 151.54-33.8 153.04-33.8 154.54-33.8 155.59-33.8L155.59-33.8 155.59-8.3Q155.59-6.2 155.94-5.08 156.29-3.95 157.22-3.5 158.14-3.05 159.79-3.05L159.79-3.05 158.69 0Q157.34 0 155.29 0.03 153.24 0.05 151.09 0.08 148.94 0.1 147.12 0.13 145.29 0.15 144.39 0.15L144.39 0.15Q144.39-0.75 144.47-1.55 144.54-2.35 144.74-2.9L144.74-2.9Q146.09-3 146.82-3.43 147.54-3.85 147.82-4.95 148.09-6.05 148.09-8.2L148.09-8.2 148.09-25.95Q148.09-27.9 147.82-28.93 147.54-29.95 146.82-30.35 146.09-30.75 144.69-30.9L144.69-30.9Q144.54-31.45 144.47-32.35 144.39-33.25 144.39-33.95ZM168.44-9.6L168.44-9.6Q169.64-9.4 170.62-9.03 171.59-8.65 172.14-8.15L172.14-8.15Q171.59-6.45 171.22-4.23 170.84-2 170.59 0.1L170.59 0.1Q169.39 0.05 167.42 0.05 165.44 0.05 163.17 0.03 160.89 0 158.69 0L158.69 0 159.79-3.05 160.39-3.05Q162.99-3.05 164.49-3.75 165.99-4.45 166.87-5.9 167.74-7.35 168.44-9.6ZM165.34-22.7L165.34-22.7Q165.29-21.45 165.24-20.05 165.19-18.65 165.19-17L165.19-17Q165.19-15.3 165.24-13.83 165.29-12.35 165.34-11.15L165.34-11.15Q164.29-11.15 163.49-11.23 162.69-11.3 161.99-11.55L161.99-11.55Q161.79-13.85 160.77-14.65 159.74-15.45 157.09-15.45L157.09-15.45 153.89-15.45 153.89-18.4 157.09-18.4Q159.89-18.4 160.87-19.2 161.84-20 161.89-22.2L161.89-22.2Q162.64-22.5 163.54-22.6 164.44-22.7 165.34-22.7ZM169.24-33.95L169.24-33.95Q169.34-32.75 169.47-31.2 169.59-29.65 169.82-28.18 170.04-26.7 170.29-25.55L170.29-25.55Q169.64-25.2 168.74-24.98 167.84-24.75 166.59-24.75L166.59-24.75Q166.39-26.45 165.72-27.83 165.04-29.2 163.49-30.05 161.94-30.9 159.09-30.9L159.09-30.9 153.94-30.9 155.34-33.8Q159.14-33.8 161.84-33.83 164.54-33.85 166.34-33.88 168.14-33.9 169.24-33.95ZM197.69 0.45L197.69 0.45Q196.99-0.95 196.41-2.15 195.84-3.35 195.34-4.5 194.84-5.65 194.24-6.9L194.24-6.9Q193.44-8.7 192.71-10 191.99-11.3 191.06-12.4 190.14-13.5 188.79-14.65L188.79-14.65 190.79-14.15Q189.44-14.1 188.39-14.1 187.34-14.1 186.14-14.15L186.14-14.15 186.39-17.4Q187.14-17.3 187.64-17.25 188.14-17.2 188.59-17.2L188.59-17.2Q190.69-17.2 192.41-17.95 194.14-18.7 195.21-20.25 196.29-21.8 196.29-24.2L196.29-24.2Q196.29-27.3 194.66-29.13 193.04-30.95 189.64-30.95L189.64-30.95Q188.74-30.95 188.01-30.83 187.29-30.7 186.44-30.45L186.44-30.45 186.79-31.8 186.79-8.2Q186.79-6 187.06-4.88 187.34-3.75 187.96-3.38 188.59-3 189.64-2.9L189.64-2.9Q189.79-2.45 189.86-1.58 189.94-0.7 189.94 0.15L189.94 0.15Q188.94 0.1 187.56 0.08 186.19 0.05 184.81 0.03 183.44 0 182.54 0L182.54 0Q180.84 0 178.96 0.03 177.09 0.05 175.59 0.15L175.59 0.15Q175.59-0.8 175.66-1.55 175.74-2.3 175.94-2.9L175.94-2.9Q177.29-3 178.01-3.4 178.74-3.8 179.01-4.88 179.29-5.95 179.29-7.9L179.29-7.9 179.29-26Q179.29-28 179.01-29 178.74-30 178.01-30.43 177.29-30.85 175.89-30.95L175.89-30.95Q175.74-31.55 175.66-32.48 175.59-33.4 175.59-33.95L175.59-33.95Q176.74-33.9 178.76-33.85 180.79-33.8 182.99-33.8L182.99-33.8Q184.69-33.8 187.19-33.9 189.69-34 192.34-34L192.34-34Q196.44-34 199.04-32.8 201.64-31.6 202.86-29.58 204.09-27.55 204.09-25.05L204.09-25.05Q204.09-22.2 202.94-20.1 201.79-18 199.74-16.73 197.69-15.45 195.04-15L195.04-15 195.79-15.65Q197.24-14.75 198.19-13.78 199.14-12.8 200.09-11.28 201.04-9.75 202.44-7.1L202.44-7.1Q203.29-5.6 203.94-4.75 204.59-3.9 205.46-3.53 206.34-3.15 207.69-3.05L207.69-3.05Q207.69-2.2 207.59-1.48 207.49-0.75 207.29 0L207.29 0Q204.39 0 201.89 0.1 199.39 0.2 197.69 0.45ZM215.84 8.8L215.84 8.8Q215.14 8.65 214.69 7.95 214.24 7.25 214.24 5.7L214.24 5.7Q214.24 2.15 215.66-1.63 217.09-5.4 219.51-9.63 221.94-13.85 224.99-18.65L224.99-18.65 219.24-18.65Q217.64-18.65 216.66-18.38 215.69-18.1 215.11-17.32 214.53-16.55 214.09-15L214.09-15Q212.89-15 211.96-15.18 211.03-15.35 210.24-15.75L210.24-15.75Q210.53-17 210.74-18.55 210.94-20.1 211.03-21.78 211.14-23.45 211.14-25.1L211.14-25.1Q212.99-25.05 215.09-25.03 217.19-25 220.34-25L220.34-25Q222.09-25 223.59-25 225.09-25 226.61-25.03 228.14-25.05 229.99-25.1L229.99-25.1Q230.49-24.55 230.71-23.73 230.94-22.9 230.94-22.1L230.94-22.1Q229.69-20.25 228.44-18.25 227.19-16.25 226.19-14.38 225.19-12.5 224.53-11.05L224.53-11.05Q223.74-9.3 223.21-7.68 222.69-6.05 222.36-4.23 222.03-2.4 221.89 0 221.74 2.4 221.74 5.7L221.74 5.7Q220.03 6.2 218.49 7.03 216.94 7.85 215.84 8.8ZM246.08-17.2L246.08-7.95Q246.08-5.9 246.36-4.83 246.63-3.75 247.38-3.35 248.13-2.95 249.53-2.9L249.53-2.9Q249.73-2.2 249.78-1.43 249.83-0.65 249.83 0.15L249.83 0.15Q249.08 0.1 248.06 0.08 247.03 0.05 245.93 0.03 244.83 0 243.91 0 242.98 0 242.53 0L242.53 0Q241.88 0 240.88 0 239.88 0 238.83 0.03 237.78 0.05 236.83 0.08 235.88 0.1 235.18 0.15L235.18 0.15Q235.18-0.7 235.26-1.5 235.33-2.3 235.53-2.9L235.53-2.9Q236.88-3.05 237.63-3.45 238.38-3.85 238.68-4.9 238.98-5.95 238.98-7.9L238.98-7.9 238.98-17.2Q238.98-19.2 238.68-20.2 238.38-21.2 237.66-21.63 236.93-22.05 235.53-22.1L235.53-22.1Q235.38-22.75 235.28-23.53 235.18-24.3 235.18-25.15L235.18-25.15Q235.78-25.1 236.76-25.08 237.73-25.05 238.83-25.03 239.93-25 240.93-25 241.93-25 242.53-25L242.53-25Q243.58-25 244.98-25.03 246.38-25.05 247.71-25.08 249.03-25.1 249.83-25.15L249.83-25.15Q249.83-24.25 249.76-23.5 249.68-22.75 249.53-22.1L249.53-22.1Q248.18-22.05 247.41-21.63 246.63-21.2 246.36-20.2 246.08-19.2 246.08-17.2L246.08-17.2Z" fill="#ffffff" data-fill-palette-color="primary"></path></g></svg></g></svg></g><g transform="matrix(1,0,0,1,98.87999999999998,84.45857099275882)"><svg viewBox="0 0 197.76000000000002 20.481337113863603" height="20.481337113863603" width="197.76000000000002"><g transform="matrix(1,0,0,1,0,0)"><svg width="197.76000000000002" viewBox="2.4000000953674316 -34.25 335.02001953125 34.70000076293945" height="20.481337113863603" data-palette-color="#fce071"><path d="M6.1-7.3L6.1-26.5Q6.1-28.4 5.83-29.35 5.55-30.3 4.8-30.73 4.05-31.15 2.7-31.25L2.7-31.25Q2.55-31.75 2.48-32.48 2.4-33.2 2.4-33.95L2.4-33.95Q3.3-33.9 4.5-33.88 5.7-33.85 6.98-33.83 8.25-33.8 9.35-33.8L9.35-33.8Q10.5-33.8 11.7-33.83 12.9-33.85 14.05-33.88 15.2-33.9 16.2-33.95L16.2-33.95Q16.2-33.2 16.15-32.52 16.1-31.85 15.85-31.25L15.85-31.25Q14.55-31.15 13.8-30.75 13.05-30.35 12.78-29.38 12.5-28.4 12.5-26.5L12.5-26.5 12.5-7.3Q12.5-5.45 12.78-4.45 13.05-3.45 13.8-3.05 14.55-2.65 15.9-2.55L15.9-2.55Q16.05-2.1 16.13-1.38 16.2-0.65 16.2 0.15L16.2 0.15Q14.8 0.05 13.08 0.03 11.35 0 9.55 0L9.55 0Q7.7 0 5.78 0.03 3.85 0.05 2.4 0.15L2.4 0.15Q2.4-0.6 2.48-1.33 2.55-2.05 2.7-2.55L2.7-2.55Q4.05-2.65 4.8-3.05 5.55-3.45 5.83-4.45 6.1-5.45 6.1-7.3L6.1-7.3ZM39.65-31.1L29.35-31.1Q27.15-31.1 25.92-30.35 24.7-29.6 24.1-28.23 23.5-26.85 23.1-24.9L23.1-24.9Q22.25-24.9 21.35-25 20.45-25.1 19.8-25.45L19.8-25.45Q20.25-27.55 20.5-29.83 20.75-32.1 20.75-33.95L20.75-33.95Q22.35-33.9 24.4-33.85 26.45-33.8 28.92-33.8 31.4-33.8 34.45-33.8L34.45-33.8Q37.3-33.8 39.82-33.8 42.35-33.8 44.42-33.85 46.5-33.9 48.1-33.95L48.1-33.95Q48.05-32.05 48.2-29.93 48.35-27.8 48.65-25.45L48.65-25.45Q48-25.15 47.15-25 46.3-24.85 45.3-24.9L45.3-24.9Q45.05-28 43.77-29.55 42.5-31.1 39.65-31.1L39.65-31.1ZM31.15-7.3L31.15-32.3 37.55-32.3 37.55-7.3Q37.55-5.45 37.87-4.45 38.2-3.45 39.1-3.05 40-2.65 41.75-2.55L41.75-2.55Q41.95-2.1 42.02-1.38 42.1-0.65 42.1 0.15L42.1 0.15Q40.55 0.05 38.57 0.03 36.6 0 34.5 0L34.5 0Q33.1 0 31.57 0.03 30.05 0.05 28.7 0.08 27.35 0.1 26.35 0.15L26.35 0.15Q26.35-0.6 26.45-1.33 26.55-2.05 26.7-2.55L26.7-2.55Q28.45-2.65 29.42-3.05 30.4-3.45 30.77-4.45 31.15-5.45 31.15-7.3L31.15-7.3ZM73.54 0.45L73.54 0.45Q70.34 0.45 67.79-0.38 65.24-1.2 62.69-2.65L62.69-2.65Q63.04-4.6 63.14-6.58 63.24-8.55 63.24-10.15L63.24-10.15Q64.09-10.4 65.09-10.5 66.09-10.6 67.04-10.6L67.04-10.6Q67.24-7.85 67.92-6.05 68.59-4.25 70.07-3.38 71.54-2.5 73.94-2.5L73.94-2.5Q77.09-2.5 78.47-3.88 79.84-5.25 79.84-7.1L79.84-7.1Q79.84-9 78.64-10.28 77.44-11.55 75.57-12.5 73.69-13.45 71.59-14.4 69.49-15.35 67.62-16.65 65.74-17.95 64.54-19.9 63.34-21.85 63.34-24.8L63.34-24.8Q63.34-27.95 64.72-30.05 66.09-32.15 68.52-33.2 70.94-34.25 74.09-34.25L74.09-34.25Q75.89-34.25 77.59-33.95 79.29-33.65 80.74-33.15 82.19-32.65 83.04-32.05L83.04-32.05Q83.04-30.35 83.12-28.4 83.19-26.45 83.39-25.15L83.39-25.15Q82.69-24.8 81.62-24.63 80.54-24.45 79.64-24.45L79.64-24.45Q79.14-27.3 78.37-28.8 77.59-30.3 76.44-30.88 75.29-31.45 73.84-31.45L73.84-31.45Q71.54-31.45 70.17-30.35 68.79-29.25 68.79-27.2L68.79-27.2Q68.79-25.2 69.99-23.88 71.19-22.55 73.12-21.58 75.04-20.6 77.19-19.6 79.34-18.6 81.27-17.32 83.19-16.05 84.39-14.15 85.59-12.25 85.59-9.4L85.59-9.4Q85.59-6.65 84.29-4.42 82.99-2.2 80.34-0.88 77.69 0.45 73.54 0.45ZM106.24 0.45L106.24 0.45Q101.14 0.45 97.39-1.83 93.64-4.1 91.57-8.03 89.49-11.95 89.49-17L89.49-17Q89.49-20.9 90.77-24.08 92.04-27.25 94.32-29.53 96.59-31.8 99.64-33.02 102.69-34.25 106.24-34.25L106.24-34.25Q111.19-34.25 114.97-32.13 118.74-30 120.89-26.18 123.04-22.35 123.04-17.25L123.04-17.25Q123.04-13.4 121.84-10.18 120.64-6.95 118.39-4.58 116.14-2.2 113.07-0.88 109.99 0.45 106.24 0.45ZM107.09-2.45L107.09-2.45Q109.99-2.45 112.02-4.23 114.04-6 115.14-9.08 116.24-12.15 116.24-16L116.24-16Q116.24-20.3 114.84-23.8 113.44-27.3 110.99-29.35 108.54-31.4 105.29-31.4L105.29-31.4Q102.69-31.4 100.64-29.83 98.59-28.25 97.44-25.3 96.29-22.35 96.29-18.3L96.29-18.3Q96.29-15.2 96.97-12.35 97.64-9.5 99.02-7.28 100.39-5.05 102.42-3.75 104.44-2.45 107.09-2.45ZM141.64-2.75L142.09-2.75Q144.54-2.75 146.01-3.38 147.49-4 148.44-5.43 149.39-6.85 150.14-9.2L150.14-9.2Q151.14-9 151.94-8.68 152.74-8.35 153.24-7.85L153.24-7.85Q152.69-6.15 152.31-4.03 151.94-1.9 151.69 0.1L151.69 0.1Q150.59 0.05 148.79 0.05 146.99 0.05 144.91 0.03 142.84 0 140.94 0L140.94 0Q139.54 0 137.59 0 135.64 0 133.59 0.03 131.54 0.05 129.81 0.08 128.09 0.1 127.19 0.15L127.19 0.15Q127.19-0.7 127.24-1.38 127.29-2.05 127.49-2.55L127.49-2.55Q128.84-2.65 129.56-3.08 130.29-3.5 130.59-4.58 130.89-5.65 130.89-7.7L130.89-7.7 130.89-26.5Q130.89-28.4 130.61-29.35 130.34-30.3 129.59-30.73 128.84-31.15 127.49-31.25L127.49-31.25Q127.34-31.75 127.26-32.52 127.19-33.3 127.19-33.95L127.19-33.95Q128.39-33.9 129.56-33.88 130.74-33.85 131.89-33.83 133.04-33.8 134.09-33.8L134.09-33.8Q135.24-33.8 136.44-33.83 137.64-33.85 138.81-33.88 139.99-33.9 140.99-33.95L140.99-33.95Q140.99-33.2 140.94-32.48 140.89-31.75 140.69-31.25L140.69-31.25Q139.39-31.15 138.64-30.75 137.89-30.35 137.59-29.35 137.29-28.35 137.29-26.4L137.29-26.4 137.29-7.75Q137.29-5.75 137.64-4.67 137.99-3.6 138.94-3.18 139.89-2.75 141.64-2.75L141.64-2.75ZM182.99-24.9L182.99-13.6Q182.99-9.3 182.41-6.7 181.84-4.1 180.09-2.35L180.09-2.35Q178.64-0.95 176.54-0.25 174.44 0.45 171.79 0.45L171.79 0.45Q166.99 0.45 164.24-0.9 161.49-2.25 160.34-4.95 159.19-7.65 159.19-11.7L159.19-11.7 159.19-26.45Q159.19-28.4 158.94-29.38 158.69-30.35 158.06-30.7 157.44-31.05 156.14-31.25L156.14-31.25Q155.99-31.85 155.91-32.55 155.84-33.25 155.84-33.95L155.84-33.95Q156.84-33.9 158.54-33.85 160.24-33.8 161.94-33.8L161.94-33.8Q162.79-33.8 163.81-33.8 164.84-33.8 165.86-33.83 166.89-33.85 167.79-33.88 168.69-33.9 169.24-33.95L169.24-33.95Q169.24-33.2 169.19-32.55 169.14-31.9 168.99-31.25L168.99-31.25Q167.54-31.1 166.81-30.73 166.09-30.35 165.84-29.4 165.59-28.45 165.59-26.45L165.59-26.45 165.59-12.45Q165.59-9.55 166.31-7.33 167.04-5.1 168.69-3.88 170.34-2.65 173.19-2.65L173.19-2.65Q174.39-2.65 175.79-3.1 177.19-3.55 178.14-4.65L178.14-4.65Q178.84-5.4 179.24-6.43 179.64-7.45 179.84-9.15 180.04-10.85 180.04-13.45L180.04-13.45 180.04-24.75Q180.04-27.2 179.76-28.55 179.49-29.9 178.79-30.5 178.09-31.1 176.64-31.25L176.64-31.25Q176.49-32.05 176.44-32.68 176.39-33.3 176.39-33.95L176.39-33.95Q177.04-33.9 177.91-33.88 178.79-33.85 179.71-33.83 180.64-33.8 181.39-33.8L181.39-33.8Q182.64-33.8 184.01-33.85 185.39-33.9 186.34-33.95L186.34-33.95Q186.34-33.35 186.26-32.73 186.19-32.1 186.04-31.25L186.04-31.25Q184.84-31.1 184.16-30.53 183.49-29.95 183.24-28.63 182.99-27.3 182.99-24.9L182.99-24.9ZM209.28-31.1L198.98-31.1Q196.78-31.1 195.56-30.35 194.33-29.6 193.73-28.23 193.13-26.85 192.73-24.9L192.73-24.9Q191.88-24.9 190.98-25 190.08-25.1 189.43-25.45L189.43-25.45Q189.88-27.55 190.13-29.83 190.38-32.1 190.38-33.95L190.38-33.95Q191.98-33.9 194.03-33.85 196.08-33.8 198.56-33.8 201.03-33.8 204.08-33.8L204.08-33.8Q206.93-33.8 209.46-33.8 211.98-33.8 214.06-33.85 216.13-33.9 217.73-33.95L217.73-33.95Q217.68-32.05 217.83-29.93 217.98-27.8 218.28-25.45L218.28-25.45Q217.63-25.15 216.78-25 215.93-24.85 214.93-24.9L214.93-24.9Q214.68-28 213.41-29.55 212.13-31.1 209.28-31.1L209.28-31.1ZM200.78-7.3L200.78-32.3 207.18-32.3 207.18-7.3Q207.18-5.45 207.51-4.45 207.83-3.45 208.73-3.05 209.63-2.65 211.38-2.55L211.38-2.55Q211.58-2.1 211.66-1.38 211.73-0.65 211.73 0.15L211.73 0.15Q210.18 0.05 208.21 0.03 206.23 0 204.13 0L204.13 0Q202.73 0 201.21 0.03 199.68 0.05 198.33 0.08 196.98 0.1 195.98 0.15L195.98 0.15Q195.98-0.6 196.08-1.33 196.18-2.05 196.33-2.55L196.33-2.55Q198.08-2.65 199.06-3.05 200.03-3.45 200.41-4.45 200.78-5.45 200.78-7.3L200.78-7.3ZM225.68-7.3L225.68-26.5Q225.68-28.4 225.41-29.35 225.13-30.3 224.38-30.73 223.63-31.15 222.28-31.25L222.28-31.25Q222.13-31.75 222.06-32.48 221.98-33.2 221.98-33.95L221.98-33.95Q222.88-33.9 224.08-33.88 225.28-33.85 226.56-33.83 227.83-33.8 228.93-33.8L228.93-33.8Q230.08-33.8 231.28-33.83 232.48-33.85 233.63-33.88 234.78-33.9 235.78-33.95L235.78-33.95Q235.78-33.2 235.73-32.52 235.68-31.85 235.43-31.25L235.43-31.25Q234.13-31.15 233.38-30.75 232.63-30.35 232.36-29.38 232.08-28.4 232.08-26.5L232.08-26.5 232.08-7.3Q232.08-5.45 232.36-4.45 232.63-3.45 233.38-3.05 234.13-2.65 235.48-2.55L235.48-2.55Q235.63-2.1 235.71-1.38 235.78-0.65 235.78 0.15L235.78 0.15Q234.38 0.05 232.66 0.03 230.93 0 229.13 0L229.13 0Q227.28 0 225.36 0.03 223.43 0.05 221.98 0.15L221.98 0.15Q221.98-0.6 222.06-1.33 222.13-2.05 222.28-2.55L222.28-2.55Q223.63-2.65 224.38-3.05 225.13-3.45 225.41-4.45 225.68-5.45 225.68-7.3L225.68-7.3ZM256.63 0.45L256.63 0.45Q251.53 0.45 247.78-1.83 244.03-4.1 241.95-8.03 239.88-11.95 239.88-17L239.88-17Q239.88-20.9 241.15-24.08 242.43-27.25 244.7-29.53 246.98-31.8 250.03-33.02 253.08-34.25 256.63-34.25L256.63-34.25Q261.58-34.25 265.35-32.13 269.13-30 271.28-26.18 273.43-22.35 273.43-17.25L273.43-17.25Q273.43-13.4 272.23-10.18 271.03-6.95 268.78-4.58 266.53-2.2 263.45-0.88 260.38 0.45 256.63 0.45ZM257.48-2.45L257.48-2.45Q260.38-2.45 262.4-4.23 264.43-6 265.53-9.08 266.63-12.15 266.63-16L266.63-16Q266.63-20.3 265.23-23.8 263.83-27.3 261.38-29.35 258.93-31.4 255.68-31.4L255.68-31.4Q253.08-31.4 251.03-29.83 248.98-28.25 247.83-25.3 246.68-22.35 246.68-18.3L246.68-18.3Q246.68-15.2 247.35-12.35 248.03-9.5 249.4-7.28 250.78-5.05 252.8-3.75 254.83-2.45 257.48-2.45ZM304.28-9.55L303.68 0.35 280.88-29.75Q280.28-30.55 279.63-30.83 278.98-31.1 277.63-31.25L277.63-31.25Q277.43-31.9 277.38-32.6 277.33-33.3 277.33-33.95L277.33-33.95Q277.88-33.9 278.7-33.88 279.53-33.85 280.43-33.83 281.33-33.8 281.98-33.8L281.98-33.8Q283.03-33.8 284.15-33.85 285.28-33.9 286.08-33.95L286.08-33.95 304.28-9.55ZM277.33 0.15L277.33 0.15Q277.33-0.7 277.38-1.35 277.43-2 277.63-2.55L277.63-2.55Q279.03-2.65 279.83-3.28 280.63-3.9 280.95-5.48 281.28-7.05 281.28-9.85L281.28-9.85 281.28-30.6 284.18-30.45 284.18-9.85Q284.18-7.05 284.48-5.48 284.78-3.9 285.58-3.28 286.38-2.65 287.83-2.55L287.83-2.55Q287.98-2 288.03-1.33 288.08-0.65 288.08 0.15L288.08 0.15Q287.38 0.1 286.43 0.08 285.48 0.05 284.53 0.03 283.58 0 282.78 0L282.78 0Q282.03 0 280.98 0.03 279.93 0.05 278.93 0.08 277.93 0.1 277.33 0.15ZM303.68 0.35L303.68 0.35 303.68-6.1 303.68-24.1Q303.68-26.9 303.38-28.4 303.08-29.9 302.28-30.53 301.48-31.15 299.98-31.25L299.98-31.25Q299.78-32.1 299.73-32.73 299.68-33.35 299.68-33.95L299.68-33.95Q300.43-33.9 301.35-33.88 302.28-33.85 303.25-33.83 304.23-33.8 304.98-33.8L304.98-33.8Q306.13-33.8 307.53-33.85 308.93-33.9 309.93-33.95L309.93-33.95Q309.93-33.3 309.88-32.63 309.83-31.95 309.63-31.25L309.63-31.25Q308.48-31.2 307.8-30.58 307.13-29.95 306.88-28.45 306.63-26.95 306.63-24.1L306.63-24.1 306.63 0Q306.03 0.2 305.28 0.28 304.53 0.35 303.68 0.35ZM325.37 0.45L325.37 0.45Q322.17 0.45 319.62-0.38 317.07-1.2 314.52-2.65L314.52-2.65Q314.87-4.6 314.97-6.58 315.07-8.55 315.07-10.15L315.07-10.15Q315.92-10.4 316.92-10.5 317.92-10.6 318.87-10.6L318.87-10.6Q319.07-7.85 319.75-6.05 320.42-4.25 321.9-3.38 323.37-2.5 325.77-2.5L325.77-2.5Q328.92-2.5 330.3-3.88 331.67-5.25 331.67-7.1L331.67-7.1Q331.67-9 330.47-10.28 329.27-11.55 327.4-12.5 325.52-13.45 323.42-14.4 321.32-15.35 319.45-16.65 317.57-17.95 316.37-19.9 315.17-21.85 315.17-24.8L315.17-24.8Q315.17-27.95 316.55-30.05 317.92-32.15 320.35-33.2 322.77-34.25 325.92-34.25L325.92-34.25Q327.72-34.25 329.42-33.95 331.12-33.65 332.57-33.15 334.02-32.65 334.87-32.05L334.87-32.05Q334.87-30.35 334.95-28.4 335.02-26.45 335.22-25.15L335.22-25.15Q334.52-24.8 333.45-24.63 332.37-24.45 331.47-24.45L331.47-24.45Q330.97-27.3 330.2-28.8 329.42-30.3 328.27-30.88 327.12-31.45 325.67-31.45L325.67-31.45Q323.37-31.45 322-30.35 320.62-29.25 320.62-27.2L320.62-27.2Q320.62-25.2 321.82-23.88 323.02-22.55 324.95-21.58 326.87-20.6 329.02-19.6 331.17-18.6 333.1-17.32 335.02-16.05 336.22-14.15 337.42-12.25 337.42-9.4L337.42-9.4Q337.42-6.65 336.12-4.42 334.82-2.2 332.17-0.88 329.52 0.45 325.37 0.45Z" opacity="1" transform="matrix(1,0,0,1,0,0)" fill="#fce071" class="undefined-text-1" data-fill-palette-color="secondary" id="text-1"></path></svg></g></svg></g></svg></g></svg></g><g><svg viewBox="0 0 237.21363731635967 145.0269530033522" height="145.0269530033522" width="237.21363731635967"><g><svg xmlns="http://www.w3.org/2000/svg" xmlns:xlink="http://www.w3.org/1999/xlink" version="1.1" x="0" y="0" viewBox="9.039999961853027 25.45800018310547 81.91999816894531 50.08399963378906" enable-background="new 0 0 100 100" xml:space="preserve" height="145.0269530033522" width="237.21363731635967" class="icon-icon-0" data-fill-palette-color="accent" id="icon-0"><path d="M81.268 25.458H18.562c-1.573 0-2.853 1.272-2.853 2.846v37.172c0 1.571 1.279 2.847 2.853 2.847h62.704c1.573 0 2.854-1.272 2.854-2.847V28.305C84.119 26.731 82.84 25.458 81.268 25.458zM50.031 26.252c0.882 0 1.594 0.718 1.594 1.601 0 0.882-0.712 1.594-1.594 1.594-0.882 0-1.601-0.711-1.601-1.594C48.43 26.97 49.148 26.252 50.031 26.252zM80.016 60.859c0 1.574-1.279 2.847-2.854 2.847H22.667c-1.573 0-2.853-1.272-2.853-2.847V33.264c0-1.574 1.279-2.846 2.853-2.846h54.495c1.572 0 2.854 1.272 2.854 2.846V60.859z" fill="#fce071" data-fill-palette-color="accent"></path><path d="M90.96 70.639c0 3.264-2.642 4.903-5.897 4.903H14.944c-3.263 0-5.904-1.642-5.904-4.903h28.924c0.691 0.719 1.663 1.17 2.744 1.17h18.36c1.08 0 2.053-0.451 2.744-1.17H90.96z" fill="#fce071" data-fill-palette-color="accent"></path><rect x="38.75" y="35.75" width="22.375" height="22.375" fill="#fce071" data-fill-palette-color="accent"></rect><polygon points="68.741,56.078 62.312,53.328 62.312,40.5 68.741,37.75 " fill="#fce071" data-fill-palette-color="accent"></polygon><polygon points="73.781,54.078 69.719,52.041 69.719,42.538 73.781,40.5 " fill="#fce071" data-fill-palette-color="accent"></polygon><polygon points="31.353,56.078 37.781,53.328 37.781,40.5 31.353,37.75 " fill="#fce071" data-fill-palette-color="accent"></polygon><polygon points="26.312,54.078 30.375,52.041 30.375,42.538 26.312,40.5 " fill="#fce071" data-fill-palette-color="accent"></polygon></svg></g></svg></g></svg></g><defs></defs></svg><rect width="395.52" height="88.40225362474716" fill="none" stroke="none" visibility="hidden"></rect></g></svg></g></svg>